<?xml version="1.0" standalone="no"?>
<!DOCTYPE svg PUBLIC "-//W3C//DTD SVG 20010904//EN"
 "http://www.w3.org/TR/2001/REC-SVG-20010904/DTD/svg10.dtd">
<svg version="1.0" xmlns="http://www.w3.org/2000/svg"
 width="932.000000pt" height="932.000000pt" viewBox="0 0 932.000000 932.000000"
 preserveAspectRatio="xMidYMid meet">
<metadata>
Created by potrace 1.14, written by Peter Selinger 2001-2017
</metadata>
<g transform="translate(0.000000,932.000000) scale(0.100000,-0.100000)"
fill="#000000" stroke="none">
<path d="M7295 8760 c-11 -4 -63 -25 -115 -46 -119 -47 -238 -103 -245 -115
-4 -5 -13 -9 -22 -9 -8 0 -26 -9 -40 -20 -14 -11 -29 -17 -34 -14 -5 3 -9 1
-9 -4 0 -5 -12 -15 -27 -23 -47 -24 -218 -140 -221 -150 -2 -5 -9 -9 -15 -9
-7 0 -29 -15 -49 -33 -20 -17 -54 -45 -74 -62 -115 -92 -355 -350 -434 -465
-13 -19 -27 -37 -30 -40 -8 -6 -83 -123 -132 -205 -39 -65 -158 -305 -152
-305 3 0 -5 -18 -16 -40 -11 -22 -18 -40 -14 -40 4 0 2 -6 -4 -12 -9 -12 -70
-187 -76 -219 -1 -8 -8 -34 -15 -59 -12 -41 -18 -65 -20 -81 -1 -3 -47 -5
-103 -5 -164 -1 -372 -18 -478 -39 -14 -3 -41 -8 -60 -11 -19 -3 -53 -10 -75
-16 -22 -5 -48 -12 -57 -14 -10 -2 -26 -6 -35 -8 -19 -5 -165 -56 -218 -76
-16 -6 -30 -11 -30 -10 0 0 -45 -22 -100 -50 -177 -91 -298 -180 -440 -325
-121 -123 -199 -228 -270 -360 -17 -33 -37 -69 -43 -80 -15 -26 -64 -144 -66
-157 -1 -3 -4 -10 -8 -14 -5 -4 -8 -17 -8 -29 0 -12 -3 -25 -7 -29 -5 -4 -9
-12 -9 -17 -1 -5 -3 -11 -4 -14 -1 -3 -3 -8 -4 -12 -22 -97 -29 -113 -49 -114
-12 0 -35 -2 -52 -4 -16 -3 -55 -7 -85 -9 -30 -3 -64 -7 -75 -9 -11 -3 -42 -8
-70 -11 -27 -4 -86 -16 -130 -27 -44 -10 -89 -21 -100 -23 -78 -17 -280 -97
-390 -156 -69 -37 -183 -107 -195 -120 -3 -3 -34 -28 -69 -55 -121 -93 -309
-304 -361 -405 -7 -14 -16 -27 -20 -30 -23 -17 -189 -397 -190 -435 0 -3 0 -6
-1 -7 0 -2 -3 -16 -5 -33 -3 -16 -7 -31 -8 -33 -2 -2 -35 -5 -72 -7 -99 -6
-204 -18 -249 -28 -11 -3 -49 -11 -85 -17 -36 -7 -69 -16 -75 -20 -13 -9 -110
-35 -110 -30 0 3 -11 -3 -25 -13 -13 -9 -32 -17 -42 -17 -10 0 -18 -5 -18 -10
0 -6 -3 -9 -7 -8 -5 1 -30 -8 -57 -20 -27 -12 -52 -22 -57 -22 -5 0 -9 -4 -9
-8 0 -4 -21 -19 -47 -33 -80 -42 -83 -44 -83 -51 0 -5 -6 -8 -14 -8 -8 0 -16
-3 -18 -7 -1 -5 -23 -21 -48 -38 -64 -43 -286 -267 -351 -355 -129 -174 -237
-373 -312 -575 -21 -59 -57 -175 -57 -187 0 -3 64 -5 290 -11 79 -3 99 -10
230 -83 36 -20 66 -41 68 -45 2 -5 8 -9 13 -9 13 0 183 -110 187 -121 2 -5 8
-9 13 -9 6 0 41 -25 79 -55 38 -30 71 -55 74 -55 3 0 16 -10 29 -22 12 -13 50
-47 84 -75 105 -91 266 -257 331 -343 10 -12 32 -40 49 -62 18 -22 41 -53 50
-69 10 -16 21 -29 26 -29 4 0 5 -5 2 -10 -3 -6 -2 -10 3 -10 4 0 19 -19 33
-42 13 -23 36 -62 52 -87 71 -120 207 -428 207 -472 0 -10 4 -19 10 -19 5 0 7
-7 4 -15 -4 -8 -2 -21 3 -28 8 -11 25 -74 37 -137 3 -14 7 -36 11 -50 6 -31
14 -80 21 -145 7 -72 10 -78 33 -66 10 6 21 7 25 4 3 -3 6 -2 6 4 0 5 6 10 13
10 18 0 220 84 238 100 8 7 19 13 24 13 11 0 119 53 125 62 3 4 17 12 30 17
24 10 50 26 74 44 6 4 44 28 84 53 39 25 72 51 72 57 0 5 3 8 6 4 6 -5 90 58
184 138 116 99 316 314 399 429 24 34 48 63 53 64 4 2 8 10 8 18 0 8 3 14 8
14 4 0 13 13 20 28 6 16 21 38 32 50 11 12 20 28 20 37 0 8 4 15 9 15 5 0 11
8 15 18 3 9 22 44 41 77 38 67 75 143 75 156 0 5 5 9 10 9 6 0 10 7 10 15 0 8
11 38 24 67 21 46 62 152 70 183 2 6 6 17 9 25 11 25 59 204 60 223 1 9 4 17
7 18 3 1 88 3 190 4 175 3 301 10 345 18 11 3 43 8 70 11 89 13 108 17 227 46
393 100 705 292 941 580 34 41 65 77 69 78 5 2 8 7 8 12 0 4 27 51 60 103 33
53 60 102 60 110 0 8 7 20 15 27 8 7 15 18 15 24 0 6 6 22 13 36 16 30 65 158
72 186 11 44 35 127 38 130 2 2 44 6 93 9 151 8 310 36 412 71 26 9 54 17 62
19 8 2 44 16 80 30 387 160 697 459 917 885 45 87 131 292 138 331 3 12 6 23
8 26 2 2 60 5 128 8 68 2 133 6 144 8 11 3 41 7 66 11 80 12 102 16 179 38
169 46 392 144 447 195 7 6 22 15 33 18 11 3 20 10 20 15 0 5 8 11 18 14 9 4
31 19 49 34 17 15 49 42 72 60 51 42 155 146 201 202 19 23 43 52 54 64 71 82
227 350 291 501 16 36 80 220 83 238 1 4 2 8 3 10 7 22 5 37 -4 38 -7 0 -67 2
-135 4 -68 2 -126 6 -129 9 -3 3 -14 1 -24 -5 -11 -5 -19 -6 -19 -2 0 4 -28 8
-63 7 -50 0 -73 6 -122 30 -33 17 -62 34 -63 39 -2 4 -8 5 -13 1 -5 -3 -9 0
-9 5 0 6 -7 11 -15 11 -8 0 -15 3 -15 8 0 4 -15 14 -32 22 -18 7 -37 18 -43
22 -5 5 -53 36 -105 70 -52 35 -97 65 -100 69 -3 3 -21 16 -41 30 -109 73
-316 259 -444 400 -264 290 -452 634 -545 994 -16 64 -32 128 -34 143 -3 15
-8 50 -12 77 -5 28 -9 53 -10 58 -1 4 -2 25 -3 47 -1 42 -3 44 -36 30z"/>
</g>
</svg>
