<svg id="Layer_1" data-name="Layer 1" xmlns="http://www.w3.org/2000/svg" viewBox="0 0 465.98 411.4"><defs><style>.cls-1{fill:#ebcb8b;}.cls-1,.cls-2{stroke:#2e3440;stroke-miterlimit:10;stroke-width:4px;}.cls-2{fill:#e5bc6b;}</style></defs><path class="cls-1" d="M391.71,218.81C462.86,220.9,480,150.26,480,150.26l-186.13-5.48C203.36,142.11,194.08,213,193.58,213Z" transform="translate(-16.58 -44.44)"/><path class="cls-1" d="M302.94,287.35c71.14,2.09,88.33-68.55,88.33-68.55l-186.13-5.48c-90.55-2.67-99.83,68.21-100.33,68.2Z" transform="translate(-16.58 -44.44)"/><path class="cls-1" d="M107.44,281.6c-71.14-2.1-88.33,68.55-88.33,68.55l186.13,5.48c90.55,2.66,99.83-68.22,100.33-68.2Z" transform="translate(-16.58 -44.44)"/><path class="cls-2" d="M35.5,350.62l164.05,4.66a132.79,132.79,0,0,1-85.5,97.82,116.22,116.22,0,0,0-5-23C93.65,383.38,52.48,359.27,35.5,350.62Z" transform="translate(-16.58 -44.44)"/><path class="cls-2" d="M459.6,149.65l-164-4.66a132.79,132.79,0,0,1,85.5-97.82,116.22,116.22,0,0,0,5,23C401.45,116.89,442.63,141,459.6,149.65Z" transform="translate(-16.58 -44.44)"/></svg>